<svg id="Слой_1" data-name="Слой 1" xmlns="http://www.w3.org/2000/svg" viewBox="0 0 57.88 58.26"><defs><style>.cls-1,.cls-2,.cls-5{fill:none;stroke-miterlimit:10;stroke-width:2px;}.cls-1{stroke:#6bb1e2;}.cls-2{stroke:#11559b;}.cls-3{fill:#3c3c3b;}.cls-4{fill:#11559b;}.cls-5{stroke:#112f6d;}.cls-6{fill:#6cb1e2;}</style></defs><path class="cls-1" d="M287.3,418.64a82.51,82.51,0,0,1,2.37-7.93,46.34,46.34,0,0,1,3.14-7.38,31.06,31.06,0,0,1,4.36-6.21c2.3-2.49,3.7-4,5.91-4.17a7.14,7.14,0,0,1,5.17,2.1c1.87,1.84,2.18,4.19,2.64,7.78a33.84,33.84,0,0,1,.22,5.61,57.87,57.87,0,0,1-.88,8.94,70.63,70.63,0,0,1-1.9,7.83c-.51,1.78-1,3.54-1.88,5.84a49.09,49.09,0,0,1-4.41,9.2,36,36,0,0,1-3.61,4.89c-3.07,3.51-4.56,3.85-5.23,3.94a5.8,5.8,0,0,1-3.55-.71c-.48-.27-2.22-1.32-3.53-5.29a22.19,22.19,0,0,1-1-7.85A77.4,77.4,0,0,1,287.3,418.64Z" transform="translate(-269.06 -391.87)"/><path class="cls-2" d="M294.86,410.14a79.28,79.28,0,0,1,8.07-1.8,47.19,47.19,0,0,1,8-.87,31.77,31.77,0,0,1,7.55.77c3.29.8,5.28,1.29,6.52,3.13a7.14,7.14,0,0,1,.69,5.53c-.69,2.53-2.59,4-5.5,6.11a33.73,33.73,0,0,1-4.79,2.93,58.58,58.58,0,0,1-8.23,3.6,69.68,69.68,0,0,1-7.76,2.16c-1.8.43-3.59.85-6,1.21a49.51,49.51,0,0,1-10.18.65,37.92,37.92,0,0,1-6-.77c-4.57-1-5.59-2.1-6-2.64a5.8,5.8,0,0,1-1.11-3.44c0-.55.06-2.59,2.89-5.67a22.28,22.28,0,0,1,6.37-4.69A77.73,77.73,0,0,1,294.86,410.14Z" transform="translate(-269.06 -391.87)"/><circle class="cls-3" cx="29.07" cy="4.49" r="4.49"/><circle class="cls-3" cx="7.66" cy="41.39" r="4.49"/><circle class="cls-4" cx="28.94" cy="28.67" r="5.53"/><path class="cls-5" d="M290.81,429.12a80.33,80.33,0,0,1-5.65-6,46.15,46.15,0,0,1-4.8-6.43,31.32,31.32,0,0,1-3.18-6.89c-1-3.24-1.58-5.2-.62-7.2a7.13,7.13,0,0,1,4.42-3.41c2.53-.69,4.71.22,8,1.63a34.9,34.9,0,0,1,5,2.63,59.14,59.14,0,0,1,7.28,5.27,71.27,71.27,0,0,1,5.81,5.57c1.28,1.34,2.55,2.67,4.1,4.57a49.89,49.89,0,0,1,5.73,8.44,36.94,36.94,0,0,1,2.4,5.58c1.49,4.42,1,5.88.78,6.51a5.94,5.94,0,0,1-2.4,2.71c-.48.28-2.26,1.25-6.35.38a22.16,22.16,0,0,1-7.28-3.09A77.6,77.6,0,0,1,290.81,429.12Z" transform="translate(-269.06 -391.87)"/><circle class="cls-6" cx="50.33" cy="41.39" r="4.49"/></svg>